<svg width="38" height="38" viewBox="0 0 38 38" fill="none" xmlns="http://www.w3.org/2000/svg">
<path d="M23.9479 33.4083L10.6083 20.1083C10.45 19.95 10.3381 19.7785 10.2727 19.5938C10.2062 19.409 10.1729 19.2111 10.1729 19C10.1729 18.7889 10.2062 18.591 10.2727 18.4063C10.3381 18.2215 10.45 18.05 10.6083 17.8917L23.9479 4.55209C24.3174 4.18265 24.7792 3.99792 25.3333 3.99792C25.8875 3.99792 26.3625 4.19584 26.7583 4.59167C27.1542 4.98751 27.3521 5.44931 27.3521 5.97709C27.3521 6.50487 27.1542 6.96667 26.7583 7.36251L15.1208 19L26.7583 30.6375C27.1278 31.007 27.3125 31.4619 27.3125 32.0023C27.3125 32.5438 27.1146 33.0125 26.7187 33.4083C26.3229 33.8042 25.8611 34.0021 25.3333 34.0021C24.8056 34.0021 24.3437 33.8042 23.9479 33.4083Z" fill="white"/>
</svg>
