<svg width="160" height="130" viewBox="0 0 160 130" fill="none" xmlns="http://www.w3.org/2000/svg">
<g clip-path="url(#clip0_1_27)">
<path d="M40 123.906C40 127.283 42.675 130 46 130H74C77.325 130 80 127.283 80 123.906C80 120.529 77.325 117.812 74 117.812H70L96 81.25H125.1C127.025 81.25 128.925 80.8945 130.725 80.209L156.25 70.4844C158.5 69.6211 160 67.4375 160 65C160 62.5625 158.5 60.3789 156.25 59.5156L130.725 49.791C128.925 49.1055 127.025 48.75 125.1 48.75H96L70 12.1875H74C77.325 12.1875 80 9.4707 80 6.09375C80 2.7168 77.325 0 74 0H46C42.675 0 40 2.7168 40 6.09375C40 9.4707 42.675 12.1875 46 12.1875H48V48.75H40L26.35 34.8867C24.85 33.3633 22.825 32.5 20.7 32.5H16C11.575 32.5 8 36.1309 8 40.625V56.875C3.575 56.875 0 60.5059 0 65C0 69.4941 3.575 73.125 8 73.125V89.375C8 93.8691 11.575 97.5 16 97.5H20.675C22.8 97.5 24.825 96.6367 26.325 95.1133L40 81.25H48V117.812H46C42.675 117.812 40 120.529 40 123.906ZM20 69.0625C17.8 69.0625 16 67.2344 16 65C16 62.7656 17.8 60.9375 20 60.9375H36C38.2 60.9375 40 62.7656 40 65C40 67.2344 38.2 69.0625 36 69.0625H20Z" fill="white"/>
</g>
<defs>
<clipPath id="clip0_1_27">
<rect width="160" height="130" fill="white" transform="matrix(1 0 0 -1 0 130)"/>
</clipPath>
</defs>
</svg>
