<svg width="90" height="90" viewBox="0 0 90 90" fill="none" xmlns="http://www.w3.org/2000/svg">
<path d="M15 82.5C12.9375 82.5 11.1725 81.7663 9.705 80.2988C8.235 78.8288 7.5 77.0625 7.5 75V42.4688C7.5 40.9688 7.90625 39.5938 8.71875 38.3438C9.53125 37.0938 10.625 36.1563 12 35.5313L28.5 28.5C29.75 28 30.9375 28.1087 32.0625 28.8263C33.1875 29.5462 33.75 30.5937 33.75 31.9687V33.75L47.3438 28.3125C48.5938 27.8125 49.765 27.9375 50.8575 28.6875C51.9525 29.4375 52.5 30.4688 52.5 31.7813V37.5H82.5V75C82.5 77.0625 81.7663 78.8288 80.2988 80.2988C78.8288 81.7663 77.0625 82.5 75 82.5H15ZM81.75 31.875H64.4062L67.125 10.7812C67.25 9.84375 67.6562 9.0625 68.3438 8.4375C69.0312 7.8125 69.8438 7.5 70.7812 7.5H75.4688C76.4062 7.5 77.2188 7.8125 77.9062 8.4375C78.5938 9.0625 79 9.84375 79.125 10.7812L81.75 31.875ZM45 67.5C46.0625 67.5 46.9538 67.14 47.6738 66.42C48.3913 65.7025 48.75 64.8125 48.75 63.75V56.25C48.75 55.1875 48.3913 54.2962 47.6738 53.5762C46.9538 52.8587 46.0625 52.5 45 52.5C43.9375 52.5 43.0475 52.8587 42.33 53.5762C41.61 54.2962 41.25 55.1875 41.25 56.25V63.75C41.25 64.8125 41.61 65.7025 42.33 66.42C43.0475 67.14 43.9375 67.5 45 67.5ZM30 67.5C31.0625 67.5 31.9538 67.14 32.6738 66.42C33.3913 65.7025 33.75 64.8125 33.75 63.75V56.25C33.75 55.1875 33.3913 54.2962 32.6738 53.5762C31.9538 52.8587 31.0625 52.5 30 52.5C28.9375 52.5 28.0463 52.8587 27.3263 53.5762C26.6088 54.2962 26.25 55.1875 26.25 56.25V63.75C26.25 64.8125 26.6088 65.7025 27.3263 66.42C28.0463 67.14 28.9375 67.5 30 67.5ZM60 67.5C61.0625 67.5 61.9525 67.14 62.67 66.42C63.39 65.7025 63.75 64.8125 63.75 63.75V56.25C63.75 55.1875 63.39 54.2962 62.67 53.5762C61.9525 52.8587 61.0625 52.5 60 52.5C58.9375 52.5 58.0475 52.8587 57.33 53.5762C56.61 54.2962 56.25 55.1875 56.25 56.25V63.75C56.25 64.8125 56.61 65.7025 57.33 66.42C58.0475 67.14 58.9375 67.5 60 67.5Z" fill="white"/>
</svg>
