<svg width="42" height="42" viewBox="0 0 42 42" fill="none" xmlns="http://www.w3.org/2000/svg">
<path d="M28 25.375C28 27.3 27.475 31.5 24.15 36.4L22.75 28L24.325 24.675C23.275 24.675 22.225 24.5 21 24.5C19.775 24.5 18.725 24.675 17.675 24.675L19.25 28L17.85 36.4C14.525 31.675 14 27.3 14 25.375C9.8 26.6 7 28.875 7 31.5V38.5H35V31.5C35 28.875 32.2 26.6 28 25.375ZM10.5 7.875C10.5 5.425 15.225 3.5 21 3.5C26.775 3.5 31.5 5.425 31.5 7.875C31.5 8.575 31.15 9.1 30.625 9.625C29.05 8.05 25.375 7 21 7C16.625 7 12.95 8.05 11.375 9.625C10.85 9.1 10.5 8.575 10.5 7.875ZM27.825 12.95C28 13.3 28 13.65 28 14C28 17.85 24.85 21 21 21C17.15 21 14 17.85 14 14C14 13.65 14 13.3 14.175 12.95C15.925 13.65 18.375 14 21 14C23.625 14 26.075 13.65 27.825 12.95ZM29.05 10.675C27.125 11.55 24.325 12.25 21 12.25C17.675 12.25 14.875 11.55 12.95 10.675C14.175 9.625 17.15 8.75 21 8.75C24.85 8.75 27.825 9.625 29.05 10.675Z" fill="white"/>
</svg>
